HIERARCHY
ROOT Hips
{
	OFFSET 0.000000 0.000000 0.000000
	CHANNELS 6 Xposition Yposition Zposition Zrotation Yrotation Xrotation 
	JOINT LHipJoint
	{
		OFFSET 0.000000 0.000000 0.000000
		CHANNELS 3 Zrotation Yrotation Xrotation
		JOINT LeftUpLeg
		{
			OFFSET 1.363060 -1.794630 0.839290
			CHANNELS 3 Zrotation Yrotation Xrotation
			JOINT LeftLeg
			{
				OFFSET 2.448110 -6.726130 0.000000
				CHANNELS 3 Zrotation Yrotation Xrotation
				JOINT LeftFoot
				{
					OFFSET 2.562200 -7.039590 0.000000
					CHANNELS 3 Zrotation Yrotation Xrotation
					JOINT LeftToeBase
					{
						OFFSET 0.157640 -0.433110 2.322550
						CHANNELS 3 Zrotation Yrotation Xrotation
						End Site
						{
							OFFSET 0.000000 0.000000 0.000000
						}
					}
				}
			}
		}
	}
	JOINT RHipJoint
	{
		OFFSET 0.000000 0.000000 0.000000
		CHANNELS 3 Zrotation Yrotation Xrotation
		JOINT RightUpLeg
		{
			OFFSET -1.305520 -1.794630 0.839290
			CHANNELS 3 Zrotation Yrotation Xrotation
			JOINT RightLeg
			{
				OFFSET -2.542530 -6.985550 0.000000
				CHANNELS 3 Zrotation Yrotation Xrotation
				JOINT RightFoot
				{
					OFFSET -2.568260 -7.056230 0.000000
					CHANNELS 3 Zrotation Yrotation Xrotation
					JOINT RightToeBase
					{
						OFFSET -0.164730 -0.452590 2.363150
						CHANNELS 3 Zrotation Yrotation Xrotation
						End Site
						{
							OFFSET 0.000000 0.000000 0.000000
						}
					}
				}
			}
		}
	}
}
MOTION
Frames: 16
Frame Time: 0.008333
-21.003821 16.251526 0.060010 -6.040227 85.030789 19.906832 -8.830508 -1.417921 3.245049 -4.710042 -10.663688 -61.292429 -0.607414 1.727138 37.896056 2.014209 9.103225 -3.321065 1.307500 -0.000000 -27.121899 9.744871 -2.905066 -2.160314 5.973547 -3.084880 -0.050382 1.951427 -1.320283 19.477577 0.641566 6.580060 4.235333 1.036400 -0.000000 -86.603500
-20.791427 16.281950 0.052087 -5.083311 84.935485 20.654505 -8.883604 -1.376582 3.091340 -5.267655 -10.251394 -60.458666 -0.659282 1.773020 38.514960 1.975401 8.871037 -3.981047 1.144900 0.000000 -27.125700 9.950996 -3.022699 -2.287816 5.409173 -4.071156 -1.355038 1.652261 -1.678834 22.507045 0.608427 7.058169 7.432633 1.517600 -0.000000 -88.739900
-20.580838 16.315006 0.042640 -3.898058 84.912871 21.618179 -8.929513 -1.334019 2.942776 -5.844227 -9.883404 -59.514896 -0.729268 1.796605 38.982550 1.934731 8.598796 -4.817179 0.955100 0.000000 -27.226401 10.165121 -3.102401 -2.425954 4.854690 -5.136502 -2.775974 1.326058 -2.000402 25.647150 0.498223 7.286469 10.722811 2.020800 0.000000 -89.698999
-20.372125 16.350439 0.031792 -2.406547 84.973344 22.883892 -8.965730 -1.293808 2.804122 -6.429408 -9.582159 -58.462817 -0.811443 1.794362 39.287128 1.897342 8.319780 -5.766601 0.754100 -0.000001 -27.398400 10.381527 -3.137933 -2.570316 4.324540 -6.240110 -4.293361 0.996068 -2.278150 28.861733 0.314690 7.175975 13.952675 2.452699 0.000000 -89.302500
-20.165406 16.388170 0.019448 -0.690464 85.109719 24.378657 -8.991112 -1.254117 2.680660 -6.999654 -9.353979 -57.313687 -0.899674 1.766180 39.422866 1.867085 8.059363 -6.765717 0.554700 -0.000000 -27.609000 10.591166 -3.125343 -2.717011 3.847211 -7.332223 -5.885164 0.685260 -2.511241 32.113984 0.071308 6.638567 16.939849 2.694800 0.000000 -87.563600
-19.960524 16.428319 0.005805 1.275407 85.315563 26.133724 -9.003233 -1.214716 2.575079 -7.543316 -9.205014 -56.072639 -0.988895 1.711612 39.381509 1.846552 7.840178 -7.751529 0.366800 0.000000 -27.823500 10.790498 -3.068120 -2.864716 3.434569 -8.381372 -7.539115 0.411338 -2.708862 35.376969 -0.213110 5.618746 19.500842 2.639200 0.000000 -84.708000
-19.757289 16.471113 -0.009805 3.069268 85.550806 27.736302 -9.010732 -1.164627 2.494061 -8.014543 -9.107806 -54.772819 -1.074338 1.639062 39.170731 1.835309 7.664527 -8.674961 0.196100 0.000000 -28.015700 10.962142 -2.967621 -3.009075 3.137738 -9.331932 -9.242538 0.176466 -2.877639 38.618405 -0.518910 4.082772 21.481378 2.210701 -0.000000 -81.106700
-19.556018 16.517072 -0.025649 5.319335 85.836666 29.810927 -8.997747 -1.116681 2.428282 -8.463541 -9.092179 -53.379726 -1.154942 1.539619 38.762498 1.834641 7.559707 -9.480462 0.049000 0.000000 -28.158100 11.129713 -2.841325 -3.152346 2.893950 -10.203698 -11.001351 -0.014158 -3.042179 41.821098 -0.833007 2.098615 22.778334 1.427901 0.000000 -77.219100
-19.356410 16.566413 -0.042909 7.261387 86.109896 31.603824 -8.984728 -1.055071 2.384050 -8.829115 -9.100500 -51.946233 -1.228567 1.428595 38.178090 1.840001 7.502910 -10.148630 -0.074200 0.000000 -28.244000 11.265366 -2.688118 -3.286256 2.773276 -10.928208 -12.806077 -0.177401 -3.200914 44.945151 -1.143160 -0.259950 23.345159 0.352699 -0.000000 -73.353700
-19.158228 16.619435 -0.060841 8.967676 86.360077 33.186743 -8.971717 -0.983612 2.354662 -9.128688 -9.122968 -50.467831 -1.296116 1.306338 37.410921 1.848907 7.492011 -10.660669 -0.171800 -0.000000 -28.270300 11.373885 -2.517226 -3.407356 2.753639 -11.497790 -14.656618 -0.320919 -3.362015 47.959497 -1.442772 -2.837377 23.194111 -0.878300 0.000000 -69.722500
-18.961627 16.676271 -0.079124 10.308999 86.568015 34.429649 -8.964058 -0.903234 2.334483 -9.368366 -9.137100 -48.949639 -1.359206 1.175926 36.462602 1.857970 7.514369 -11.014776 -0.244200 0.000000 -28.242600 11.453025 -2.334172 -3.510761 2.826796 -11.898345 -16.546383 -0.452517 -3.526027 50.825229 -1.726001 -5.460480 22.386678 -2.109000 0.000000 -66.394800
-18.766310 16.736709 -0.097527 11.109563 86.716945 35.154540 -8.968807 -0.815318 2.317472 -9.553625 -9.117877 -47.396244 -1.419795 1.040565 35.341398 1.863777 7.553207 -11.222861 -0.292900 0.000000 -28.171500 11.498931 -2.143389 -3.591765 2.984909 -12.120806 -18.463260 -0.577052 -3.689120 53.499960 -1.987054 -7.959970 21.026538 -3.195899 -0.000000 -63.372600
-18.572256 16.800495 -0.115765 11.287942 86.797873 35.274083 -8.989016 -0.722263 2.296550 -9.696618 -9.045814 -45.802237 -1.480139 0.901247 34.051851 1.863878 7.594670 -11.303245 -0.320600 0.000001 -28.067801 11.512312 -1.949083 -3.646862 3.209810 -12.166320 -20.387511 -0.695056 -3.846460 55.939303 -2.218869 -10.184536 19.243717 -4.030500 -0.000001 -60.568901
-18.379024 16.866898 -0.133781 10.734142 86.804842 34.672062 -9.028661 -0.625635 2.266142 -9.802445 -8.900894 -44.168179 -1.541807 0.759952 32.610149 1.855952 7.621756 -11.282771 -0.331300 -0.000000 -27.943000 11.492305 -1.754090 -3.673195 3.490818 -12.039250 -22.295573 -0.805125 -3.990441 58.100644 -2.414309 -12.025842 17.194785 -4.561201 -0.000000 -58.032700
-18.186675 16.935163 -0.151534 9.464698 86.738492 33.356338 -9.086530 -0.526624 2.221079 -9.878944 -8.671371 -42.486268 -1.605828 0.616958 31.028232 1.838963 7.624120 -11.186180 -0.328900 0.000000 -27.807700 11.443461 -1.560862 -3.670444 3.810456 -11.755233 -24.160448 -0.903387 -4.115442 59.950225 -2.564325 -13.404425 15.025374 -4.782700 0.000000 -55.641201
-17.994847 17.004157 -0.169170 7.501091 86.603539 31.341399 -9.161318 -0.425287 2.159040 -9.925828 -8.348565 -40.759377 -1.671986 0.473847 29.330590 1.811944 7.590039 -11.038303 -0.317600 -0.000001 -27.674500 11.369716 -1.370446 -3.638534 4.161139 -11.331020 -25.957832 -0.986164 -4.215181 61.462026 -2.662592 -14.292829 12.891021 -4.741301 0.000000 -53.520400
